{"title":"Hijacked 2012 BluRay 720p DTS x264 - CHD","uid":7433998,"size":3804868596,"categoryP":"video","categoryS":"hd___movies","magnet":"?xt=urn:btih:dac75b7dec2658c0e62f64fb43d31f66e41c6251&amp;dn=Hijacked+2012+BluRay+720p+DTS+x264+-+CHD&amp;tr=udp%3A%2F%2Ftracker.openbittorrent.com%3A80&amp;tr=udp%3A%2F%2Fopen.demonii.com%3A1337&amp;tr=udp%3A%2F%2Ftracker.coppersurfer.tk%3A6969&amp;tr=udp%3A%2F%2Fexodus.desync.com%3A6969","seeders":0,"leechers":1,"uploader":"tykoon123","files":-1,"time":1342020326,"description":"Cover: &lt;a href=&quot;\nhttp://imgh.us/YQ7MNIzG.jpeg&quot; rel=&quot;nofollow&quot; target=&quot;_NEW&quot;&gt;\nhttp://imgh.us/YQ7MNIzG.jpeg&lt;/a&gt;\n\nInfo:\n\nFormat : Matroska\nFormat version : Version 2\nFile size : 3.50 GiB\nDuration : 1h 30mn\nOverall bit rate : 5 552 Kbps\nEncoded date : UTC 2012-07-11 12:01:58\nWriting application : mkvmerge v3.3.0 ('Language') ??? Mar 24 2010 14:59:24\nWriting library : libebml v0.8.0 + libmatroska v0.9.0\n\nVideo\nID : 1\nFormat : AVC\nFormat/Info : Advanced Video Codec\nFormat profile : &lt;a class=&quot;__cf_email__&quot; href=&quot;/cdn-cgi/l/email-protection&quot; data-cfemail=&quot;d199b8b6b9919de5ffe0&quot;&gt;[email&amp;#160;protected]&lt;/a&gt;&lt;script cf-hash='f9e31' type=&quot;text/javascript&quot;&gt;\n/* &lt;![CDATA[ */!function(){try{var t=&quot;currentScript&quot;in document?document.currentScript:function(){for(var t=document.getElementsByTagName(&quot;script&quot;),e=t.length;e--;)if(t[e].getAttribute(&quot;cf-hash&quot;))return t[e]}();if(t&amp;&amp;t.previousSibling){var e,r,n,i,c=t.previousSibling,a=c.getAttribute(&quot;data-cfemail&quot;);if(a){for(e=&quot;&quot;,r=parseInt(a.substr(0,2),16),n=2;a.length-n;n+=2)i=parseInt(a.substr(n,2),16)^r,e+=String.fromCharCode(i);e=document.createTextNode(e),c.parentNode.replaceChild(e,c)}}}catch(u){}}();/* ]]&gt; */&lt;/script&gt;\nFormat settings, CABAC : Yes\nFormat settings, ReFrames : 9 frames\nCodec ID : V_MPEG4/ISO/AVC\nDuration : 1h 30mn\nBit rate : 4 047 Kbps\nWidth : 1 280 pixels\nHeight : 720 pixels\nDisplay aspect ratio : 16:9\nFrame rate : 23.976 fps\nColor space : YUV\nChroma subsampling : 4:2:0\nBit depth : 8 bits\nScan type : Progressive\nBits/(Pixel*Frame) : 0.183\nStream size : 2.48 GiB (71%)\nWriting library : x264 core 124 r2197 69a0443\nDefault : No\nForced : No\n\nAudio\nID : 2\nFormat : DTS\nFormat/Info : Digital Theater Systems\nCodec ID : A_DTS\nDuration : 1h 30mn\nBit rate mode : Constant\nBit rate : 1 510 Kbps\nChannel(s) : 6 channels\nChannel positions : Front: L C R, Side: L R, LFE\nSampling rate : 48.0 KHz\nBit depth : 24 bits\nCompression mode : Lossy\nStream size : 975 MiB (27%)\nTitle : English DTS-HDMA CORE 5.1CH @ 1509 kbps\nLanguage : English\nDefault : Yes\nForced : No\n\nSCREENS: &lt;a href=&quot;\nhttp://imgh.us/BHYyOEb3_1.png&quot; rel=&quot;nofollow&quot; target=&quot;_NEW&quot;&gt;\nhttp://imgh.us/BHYyOEb3_1.png&lt;/a&gt; &lt;a href=&quot;\nhttp://imgh.us/EYbZMD6.png&quot; rel=&quot;nofollow&quot; target=&quot;_NEW&quot;&gt;\nhttp://imgh.us/EYbZMD6.png&lt;/a&gt;\n","torrent":{"xt":"urn:btih:dac75b7dec2658c0e62f64fb43d31f66e41c6251","amp;dn":"Hijacked+2012+BluRay+720p+DTS+x264+-+CHD","amp;tr":["udp%3A%2F%2Ftracker.openbittorrent.com%3A80","udp%3A%2F%2Fopen.demonii.com%3A1337","udp%3A%2F%2Ftracker.coppersurfer.tk%3A6969","udp%3A%2F%2Fexodus.desync.com%3A6969"],"infoHash":"dac75b7dec2658c0e62f64fb43d31f66e41c6251","infoHashBuffer":{"type":"Buffer","data":[218,199,91,125,236,38,88,192,230,47,100,251,67,211,31,102,228,28,98,81]},"announce":[],"urlList":[]}}